<?xml version="1.0" standalone="no"?>
<svg xmlns="http://www.w3.org/2000/svg" version="1.1" width="1972" height="1972">
	<!-- Created with https://api.qrserver.com (QR Code API, see goQR.me/api for information) -->
	<title>QR Code</title>
	<desc>https://guemes-pueblo-cantabria-2026.vercel.app/</desc>
	<rect style="fill:rgb(10, 17, 32);fill-opacity:1" x="0" y="0" width="1972" height="1972" />
	<g id="elements">
		<path style="fill:rgb(244, 199, 123)" d="M 0,0 l 68,0 0,68 -68,0 z M 68,0 l 68,0 0,68 -68,0 z M 136,0 l 68,0 0,68 -68,0 z M 204,0 l 68,0 0,68 -68,0 z M 272,0 l 68,0 0,68 -68,0 z M 340,0 l 68,0 0,68 -68,0 z M 408,0 l 68,0 0,68 -68,0 z M 816,0 l 68,0 0,68 -68,0 z M 1088,0 l 68,0 0,68 -68,0 z M 1224,0 l 68,0 0,68 -68,0 z M 1292,0 l 68,0 0,68 -68,0 z M 1360,0 l 68,0 0,68 -68,0 z M 1496,0 l 68,0 0,68 -68,0 z M 1564,0 l 68,0 0,68 -68,0 z M 1632,0 l 68,0 0,68 -68,0 z M 1700,0 l 68,0 0,68 -68,0 z M 1768,0 l 68,0 0,68 -68,0 z M 1836,0 l 68,0 0,68 -68,0 z M 1904,0 l 68,0 0,68 -68,0 z M 0,68 l 68,0 0,68 -68,0 z M 408,68 l 68,0 0,68 -68,0 z M 544,68 l 68,0 0,68 -68,0 z M 680,68 l 68,0 0,68 -68,0 z M 816,68 l 68,0 0,68 -68,0 z M 1156,68 l 68,0 0,68 -68,0 z M 1224,68 l 68,0 0,68 -68,0 z M 1360,68 l 68,0 0,68 -68,0 z M 1496,68 l 68,0 0,68 -68,0 z M 1904,68 l 68,0 0,68 -68,0 z M 0,136 l 68,0 0,68 -68,0 z M 136,136 l 68,0 0,68 -68,0 z M 204,136 l 68,0 0,68 -68,0 z M 272,136 l 68,0 0,68 -68,0 z M 408,136 l 68,0 0,68 -68,0 z M 816,136 l 68,0 0,68 -68,0 z M 952,136 l 68,0 0,68 -68,0 z M 1020,136 l 68,0 0,68 -68,0 z M 1088,136 l 68,0 0,68 -68,0 z M 1360,136 l 68,0 0,68 -68,0 z M 1496,136 l 68,0 0,68 -68,0 z M 1632,136 l 68,0 0,68 -68,0 z M 1700,136 l 68,0 0,68 -68,0 z M 1768,136 l 68,0 0,68 -68,0 z M 1904,136 l 68,0 0,68 -68,0 z M 0,204 l 68,0 0,68 -68,0 z M 136,204 l 68,0 0,68 -68,0 z M 204,204 l 68,0 0,68 -68,0 z M 272,204 l 68,0 0,68 -68,0 z M 408,204 l 68,0 0,68 -68,0 z M 544,204 l 68,0 0,68 -68,0 z M 612,204 l 68,0 0,68 -68,0 z M 680,204 l 68,0 0,68 -68,0 z M 816,204 l 68,0 0,68 -68,0 z M 1020,204 l 68,0 0,68 -68,0 z M 1156,204 l 68,0 0,68 -68,0 z M 1292,204 l 68,0 0,68 -68,0 z M 1496,204 l 68,0 0,68 -68,0 z M 1632,204 l 68,0 0,68 -68,0 z M 1700,204 l 68,0 0,68 -68,0 z M 1768,204 l 68,0 0,68 -68,0 z M 1904,204 l 68,0 0,68 -68,0 z M 0,272 l 68,0 0,68 -68,0 z M 136,272 l 68,0 0,68 -68,0 z M 204,272 l 68,0 0,68 -68,0 z M 272,272 l 68,0 0,68 -68,0 z M 408,272 l 68,0 0,68 -68,0 z M 612,272 l 68,0 0,68 -68,0 z M 1020,272 l 68,0 0,68 -68,0 z M 1088,272 l 68,0 0,68 -68,0 z M 1224,272 l 68,0 0,68 -68,0 z M 1292,272 l 68,0 0,68 -68,0 z M 1496,272 l 68,0 0,68 -68,0 z M 1632,272 l 68,0 0,68 -68,0 z M 1700,272 l 68,0 0,68 -68,0 z M 1768,272 l 68,0 0,68 -68,0 z M 1904,272 l 68,0 0,68 -68,0 z M 0,340 l 68,0 0,68 -68,0 z M 408,340 l 68,0 0,68 -68,0 z M 544,340 l 68,0 0,68 -68,0 z M 612,340 l 68,0 0,68 -68,0 z M 748,340 l 68,0 0,68 -68,0 z M 884,340 l 68,0 0,68 -68,0 z M 1020,340 l 68,0 0,68 -68,0 z M 1224,340 l 68,0 0,68 -68,0 z M 1360,340 l 68,0 0,68 -68,0 z M 1496,340 l 68,0 0,68 -68,0 z M 1904,340 l 68,0 0,68 -68,0 z M 0,408 l 68,0 0,68 -68,0 z M 68,408 l 68,0 0,68 -68,0 z M 136,408 l 68,0 0,68 -68,0 z M 204,408 l 68,0 0,68 -68,0 z M 272,408 l 68,0 0,68 -68,0 z M 340,408 l 68,0 0,68 -68,0 z M 408,408 l 68,0 0,68 -68,0 z M 544,408 l 68,0 0,68 -68,0 z M 680,408 l 68,0 0,68 -68,0 z M 816,408 l 68,0 0,68 -68,0 z M 952,408 l 68,0 0,68 -68,0 z M 1088,408 l 68,0 0,68 -68,0 z M 1224,408 l 68,0 0,68 -68,0 z M 1360,408 l 68,0 0,68 -68,0 z M 1496,408 l 68,0 0,68 -68,0 z M 1564,408 l 68,0 0,68 -68,0 z M 1632,408 l 68,0 0,68 -68,0 z M 1700,408 l 68,0 0,68 -68,0 z M 1768,408 l 68,0 0,68 -68,0 z M 1836,408 l 68,0 0,68 -68,0 z M 1904,408 l 68,0 0,68 -68,0 z M 612,476 l 68,0 0,68 -68,0 z M 680,476 l 68,0 0,68 -68,0 z M 748,476 l 68,0 0,68 -68,0 z M 816,476 l 68,0 0,68 -68,0 z M 884,476 l 68,0 0,68 -68,0 z M 1020,476 l 68,0 0,68 -68,0 z M 1292,476 l 68,0 0,68 -68,0 z M 1360,476 l 68,0 0,68 -68,0 z M 0,544 l 68,0 0,68 -68,0 z M 68,544 l 68,0 0,68 -68,0 z M 136,544 l 68,0 0,68 -68,0 z M 204,544 l 68,0 0,68 -68,0 z M 272,544 l 68,0 0,68 -68,0 z M 408,544 l 68,0 0,68 -68,0 z M 476,544 l 68,0 0,68 -68,0 z M 544,544 l 68,0 0,68 -68,0 z M 612,544 l 68,0 0,68 -68,0 z M 748,544 l 68,0 0,68 -68,0 z M 816,544 l 68,0 0,68 -68,0 z M 952,544 l 68,0 0,68 -68,0 z M 1020,544 l 68,0 0,68 -68,0 z M 1156,544 l 68,0 0,68 -68,0 z M 1292,544 l 68,0 0,68 -68,0 z M 1428,544 l 68,0 0,68 -68,0 z M 1564,544 l 68,0 0,68 -68,0 z M 1700,544 l 68,0 0,68 -68,0 z M 1836,544 l 68,0 0,68 -68,0 z M 204,612 l 68,0 0,68 -68,0 z M 272,612 l 68,0 0,68 -68,0 z M 340,612 l 68,0 0,68 -68,0 z M 476,612 l 68,0 0,68 -68,0 z M 544,612 l 68,0 0,68 -68,0 z M 680,612 l 68,0 0,68 -68,0 z M 816,612 l 68,0 0,68 -68,0 z M 884,612 l 68,0 0,68 -68,0 z M 952,612 l 68,0 0,68 -68,0 z M 1020,612 l 68,0 0,68 -68,0 z M 1156,612 l 68,0 0,68 -68,0 z M 1224,612 l 68,0 0,68 -68,0 z M 1292,612 l 68,0 0,68 -68,0 z M 1360,612 l 68,0 0,68 -68,0 z M 1428,612 l 68,0 0,68 -68,0 z M 1496,612 l 68,0 0,68 -68,0 z M 1564,612 l 68,0 0,68 -68,0 z M 1632,612 l 68,0 0,68 -68,0 z M 1904,612 l 68,0 0,68 -68,0 z M 340,680 l 68,0 0,68 -68,0 z M 408,680 l 68,0 0,68 -68,0 z M 476,680 l 68,0 0,68 -68,0 z M 680,680 l 68,0 0,68 -68,0 z M 816,680 l 68,0 0,68 -68,0 z M 952,680 l 68,0 0,68 -68,0 z M 1020,680 l 68,0 0,68 -68,0 z M 1088,680 l 68,0 0,68 -68,0 z M 1156,680 l 68,0 0,68 -68,0 z M 1564,680 l 68,0 0,68 -68,0 z M 1632,680 l 68,0 0,68 -68,0 z M 136,748 l 68,0 0,68 -68,0 z M 272,748 l 68,0 0,68 -68,0 z M 544,748 l 68,0 0,68 -68,0 z M 884,748 l 68,0 0,68 -68,0 z M 952,748 l 68,0 0,68 -68,0 z M 1088,748 l 68,0 0,68 -68,0 z M 1224,748 l 68,0 0,68 -68,0 z M 1360,748 l 68,0 0,68 -68,0 z M 1564,748 l 68,0 0,68 -68,0 z M 1700,748 l 68,0 0,68 -68,0 z M 1836,748 l 68,0 0,68 -68,0 z M 68,816 l 68,0 0,68 -68,0 z M 272,816 l 68,0 0,68 -68,0 z M 340,816 l 68,0 0,68 -68,0 z M 408,816 l 68,0 0,68 -68,0 z M 476,816 l 68,0 0,68 -68,0 z M 612,816 l 68,0 0,68 -68,0 z M 680,816 l 68,0 0,68 -68,0 z M 748,816 l 68,0 0,68 -68,0 z M 1020,816 l 68,0 0,68 -68,0 z M 1088,816 l 68,0 0,68 -68,0 z M 1156,816 l 68,0 0,68 -68,0 z M 1292,816 l 68,0 0,68 -68,0 z M 1700,816 l 68,0 0,68 -68,0 z M 1768,816 l 68,0 0,68 -68,0 z M 340,884 l 68,0 0,68 -68,0 z M 476,884 l 68,0 0,68 -68,0 z M 612,884 l 68,0 0,68 -68,0 z M 816,884 l 68,0 0,68 -68,0 z M 884,884 l 68,0 0,68 -68,0 z M 952,884 l 68,0 0,68 -68,0 z M 1292,884 l 68,0 0,68 -68,0 z M 1360,884 l 68,0 0,68 -68,0 z M 1496,884 l 68,0 0,68 -68,0 z M 1564,884 l 68,0 0,68 -68,0 z M 1632,884 l 68,0 0,68 -68,0 z M 1904,884 l 68,0 0,68 -68,0 z M 0,952 l 68,0 0,68 -68,0 z M 136,952 l 68,0 0,68 -68,0 z M 340,952 l 68,0 0,68 -68,0 z M 408,952 l 68,0 0,68 -68,0 z M 816,952 l 68,0 0,68 -68,0 z M 1020,952 l 68,0 0,68 -68,0 z M 1088,952 l 68,0 0,68 -68,0 z M 1428,952 l 68,0 0,68 -68,0 z M 1564,952 l 68,0 0,68 -68,0 z M 1632,952 l 68,0 0,68 -68,0 z M 1700,952 l 68,0 0,68 -68,0 z M 1768,952 l 68,0 0,68 -68,0 z M 0,1020 l 68,0 0,68 -68,0 z M 136,1020 l 68,0 0,68 -68,0 z M 272,1020 l 68,0 0,68 -68,0 z M 340,1020 l 68,0 0,68 -68,0 z M 476,1020 l 68,0 0,68 -68,0 z M 544,1020 l 68,0 0,68 -68,0 z M 612,1020 l 68,0 0,68 -68,0 z M 680,1020 l 68,0 0,68 -68,0 z M 952,1020 l 68,0 0,68 -68,0 z M 1088,1020 l 68,0 0,68 -68,0 z M 1224,1020 l 68,0 0,68 -68,0 z M 1292,1020 l 68,0 0,68 -68,0 z M 1496,1020 l 68,0 0,68 -68,0 z M 1564,1020 l 68,0 0,68 -68,0 z M 1632,1020 l 68,0 0,68 -68,0 z M 1836,1020 l 68,0 0,68 -68,0 z M 0,1088 l 68,0 0,68 -68,0 z M 68,1088 l 68,0 0,68 -68,0 z M 136,1088 l 68,0 0,68 -68,0 z M 204,1088 l 68,0 0,68 -68,0 z M 340,1088 l 68,0 0,68 -68,0 z M 408,1088 l 68,0 0,68 -68,0 z M 544,1088 l 68,0 0,68 -68,0 z M 612,1088 l 68,0 0,68 -68,0 z M 748,1088 l 68,0 0,68 -68,0 z M 952,1088 l 68,0 0,68 -68,0 z M 1020,1088 l 68,0 0,68 -68,0 z M 1088,1088 l 68,0 0,68 -68,0 z M 1156,1088 l 68,0 0,68 -68,0 z M 1428,1088 l 68,0 0,68 -68,0 z M 1700,1088 l 68,0 0,68 -68,0 z M 1768,1088 l 68,0 0,68 -68,0 z M 0,1156 l 68,0 0,68 -68,0 z M 136,1156 l 68,0 0,68 -68,0 z M 204,1156 l 68,0 0,68 -68,0 z M 272,1156 l 68,0 0,68 -68,0 z M 340,1156 l 68,0 0,68 -68,0 z M 544,1156 l 68,0 0,68 -68,0 z M 680,1156 l 68,0 0,68 -68,0 z M 884,1156 l 68,0 0,68 -68,0 z M 952,1156 l 68,0 0,68 -68,0 z M 1224,1156 l 68,0 0,68 -68,0 z M 1292,1156 l 68,0 0,68 -68,0 z M 1360,1156 l 68,0 0,68 -68,0 z M 1428,1156 l 68,0 0,68 -68,0 z M 1496,1156 l 68,0 0,68 -68,0 z M 1564,1156 l 68,0 0,68 -68,0 z M 1632,1156 l 68,0 0,68 -68,0 z M 1768,1156 l 68,0 0,68 -68,0 z M 1904,1156 l 68,0 0,68 -68,0 z M 0,1224 l 68,0 0,68 -68,0 z M 204,1224 l 68,0 0,68 -68,0 z M 340,1224 l 68,0 0,68 -68,0 z M 408,1224 l 68,0 0,68 -68,0 z M 612,1224 l 68,0 0,68 -68,0 z M 816,1224 l 68,0 0,68 -68,0 z M 952,1224 l 68,0 0,68 -68,0 z M 1020,1224 l 68,0 0,68 -68,0 z M 1224,1224 l 68,0 0,68 -68,0 z M 1360,1224 l 68,0 0,68 -68,0 z M 1496,1224 l 68,0 0,68 -68,0 z M 1564,1224 l 68,0 0,68 -68,0 z M 1632,1224 l 68,0 0,68 -68,0 z M 1768,1224 l 68,0 0,68 -68,0 z M 0,1292 l 68,0 0,68 -68,0 z M 136,1292 l 68,0 0,68 -68,0 z M 340,1292 l 68,0 0,68 -68,0 z M 476,1292 l 68,0 0,68 -68,0 z M 544,1292 l 68,0 0,68 -68,0 z M 680,1292 l 68,0 0,68 -68,0 z M 816,1292 l 68,0 0,68 -68,0 z M 884,1292 l 68,0 0,68 -68,0 z M 1020,1292 l 68,0 0,68 -68,0 z M 1360,1292 l 68,0 0,68 -68,0 z M 1564,1292 l 68,0 0,68 -68,0 z M 1632,1292 l 68,0 0,68 -68,0 z M 1836,1292 l 68,0 0,68 -68,0 z M 0,1360 l 68,0 0,68 -68,0 z M 136,1360 l 68,0 0,68 -68,0 z M 272,1360 l 68,0 0,68 -68,0 z M 340,1360 l 68,0 0,68 -68,0 z M 408,1360 l 68,0 0,68 -68,0 z M 476,1360 l 68,0 0,68 -68,0 z M 748,1360 l 68,0 0,68 -68,0 z M 1020,1360 l 68,0 0,68 -68,0 z M 1156,1360 l 68,0 0,68 -68,0 z M 1360,1360 l 68,0 0,68 -68,0 z M 1428,1360 l 68,0 0,68 -68,0 z M 1496,1360 l 68,0 0,68 -68,0 z M 1564,1360 l 68,0 0,68 -68,0 z M 1632,1360 l 68,0 0,68 -68,0 z M 1768,1360 l 68,0 0,68 -68,0 z M 1836,1360 l 68,0 0,68 -68,0 z M 1904,1360 l 68,0 0,68 -68,0 z M 544,1428 l 68,0 0,68 -68,0 z M 816,1428 l 68,0 0,68 -68,0 z M 884,1428 l 68,0 0,68 -68,0 z M 952,1428 l 68,0 0,68 -68,0 z M 1224,1428 l 68,0 0,68 -68,0 z M 1360,1428 l 68,0 0,68 -68,0 z M 1632,1428 l 68,0 0,68 -68,0 z M 1700,1428 l 68,0 0,68 -68,0 z M 1768,1428 l 68,0 0,68 -68,0 z M 1836,1428 l 68,0 0,68 -68,0 z M 1904,1428 l 68,0 0,68 -68,0 z M 0,1496 l 68,0 0,68 -68,0 z M 68,1496 l 68,0 0,68 -68,0 z M 136,1496 l 68,0 0,68 -68,0 z M 204,1496 l 68,0 0,68 -68,0 z M 272,1496 l 68,0 0,68 -68,0 z M 340,1496 l 68,0 0,68 -68,0 z M 408,1496 l 68,0 0,68 -68,0 z M 544,1496 l 68,0 0,68 -68,0 z M 680,1496 l 68,0 0,68 -68,0 z M 748,1496 l 68,0 0,68 -68,0 z M 1020,1496 l 68,0 0,68 -68,0 z M 1088,1496 l 68,0 0,68 -68,0 z M 1156,1496 l 68,0 0,68 -68,0 z M 1224,1496 l 68,0 0,68 -68,0 z M 1292,1496 l 68,0 0,68 -68,0 z M 1360,1496 l 68,0 0,68 -68,0 z M 1496,1496 l 68,0 0,68 -68,0 z M 1632,1496 l 68,0 0,68 -68,0 z M 1700,1496 l 68,0 0,68 -68,0 z M 1768,1496 l 68,0 0,68 -68,0 z M 0,1564 l 68,0 0,68 -68,0 z M 408,1564 l 68,0 0,68 -68,0 z M 612,1564 l 68,0 0,68 -68,0 z M 748,1564 l 68,0 0,68 -68,0 z M 816,1564 l 68,0 0,68 -68,0 z M 884,1564 l 68,0 0,68 -68,0 z M 1020,1564 l 68,0 0,68 -68,0 z M 1224,1564 l 68,0 0,68 -68,0 z M 1292,1564 l 68,0 0,68 -68,0 z M 1360,1564 l 68,0 0,68 -68,0 z M 1632,1564 l 68,0 0,68 -68,0 z M 1904,1564 l 68,0 0,68 -68,0 z M 0,1632 l 68,0 0,68 -68,0 z M 136,1632 l 68,0 0,68 -68,0 z M 204,1632 l 68,0 0,68 -68,0 z M 272,1632 l 68,0 0,68 -68,0 z M 408,1632 l 68,0 0,68 -68,0 z M 544,1632 l 68,0 0,68 -68,0 z M 748,1632 l 68,0 0,68 -68,0 z M 816,1632 l 68,0 0,68 -68,0 z M 952,1632 l 68,0 0,68 -68,0 z M 1020,1632 l 68,0 0,68 -68,0 z M 1156,1632 l 68,0 0,68 -68,0 z M 1360,1632 l 68,0 0,68 -68,0 z M 1428,1632 l 68,0 0,68 -68,0 z M 1496,1632 l 68,0 0,68 -68,0 z M 1564,1632 l 68,0 0,68 -68,0 z M 1632,1632 l 68,0 0,68 -68,0 z M 1768,1632 l 68,0 0,68 -68,0 z M 1904,1632 l 68,0 0,68 -68,0 z M 0,1700 l 68,0 0,68 -68,0 z M 136,1700 l 68,0 0,68 -68,0 z M 204,1700 l 68,0 0,68 -68,0 z M 272,1700 l 68,0 0,68 -68,0 z M 408,1700 l 68,0 0,68 -68,0 z M 544,1700 l 68,0 0,68 -68,0 z M 680,1700 l 68,0 0,68 -68,0 z M 816,1700 l 68,0 0,68 -68,0 z M 884,1700 l 68,0 0,68 -68,0 z M 952,1700 l 68,0 0,68 -68,0 z M 1088,1700 l 68,0 0,68 -68,0 z M 1292,1700 l 68,0 0,68 -68,0 z M 1564,1700 l 68,0 0,68 -68,0 z M 1700,1700 l 68,0 0,68 -68,0 z M 1768,1700 l 68,0 0,68 -68,0 z M 0,1768 l 68,0 0,68 -68,0 z M 136,1768 l 68,0 0,68 -68,0 z M 204,1768 l 68,0 0,68 -68,0 z M 272,1768 l 68,0 0,68 -68,0 z M 408,1768 l 68,0 0,68 -68,0 z M 544,1768 l 68,0 0,68 -68,0 z M 1020,1768 l 68,0 0,68 -68,0 z M 1088,1768 l 68,0 0,68 -68,0 z M 1156,1768 l 68,0 0,68 -68,0 z M 1224,1768 l 68,0 0,68 -68,0 z M 1292,1768 l 68,0 0,68 -68,0 z M 1496,1768 l 68,0 0,68 -68,0 z M 1564,1768 l 68,0 0,68 -68,0 z M 1632,1768 l 68,0 0,68 -68,0 z M 1700,1768 l 68,0 0,68 -68,0 z M 1768,1768 l 68,0 0,68 -68,0 z M 1836,1768 l 68,0 0,68 -68,0 z M 0,1836 l 68,0 0,68 -68,0 z M 408,1836 l 68,0 0,68 -68,0 z M 544,1836 l 68,0 0,68 -68,0 z M 748,1836 l 68,0 0,68 -68,0 z M 816,1836 l 68,0 0,68 -68,0 z M 952,1836 l 68,0 0,68 -68,0 z M 1020,1836 l 68,0 0,68 -68,0 z M 1224,1836 l 68,0 0,68 -68,0 z M 1292,1836 l 68,0 0,68 -68,0 z M 1360,1836 l 68,0 0,68 -68,0 z M 1428,1836 l 68,0 0,68 -68,0 z M 1564,1836 l 68,0 0,68 -68,0 z M 1700,1836 l 68,0 0,68 -68,0 z M 1836,1836 l 68,0 0,68 -68,0 z M 0,1904 l 68,0 0,68 -68,0 z M 68,1904 l 68,0 0,68 -68,0 z M 136,1904 l 68,0 0,68 -68,0 z M 204,1904 l 68,0 0,68 -68,0 z M 272,1904 l 68,0 0,68 -68,0 z M 340,1904 l 68,0 0,68 -68,0 z M 408,1904 l 68,0 0,68 -68,0 z M 544,1904 l 68,0 0,68 -68,0 z M 748,1904 l 68,0 0,68 -68,0 z M 952,1904 l 68,0 0,68 -68,0 z M 1156,1904 l 68,0 0,68 -68,0 z M 1292,1904 l 68,0 0,68 -68,0 z M 1428,1904 l 68,0 0,68 -68,0 z M 1564,1904 l 68,0 0,68 -68,0 z M 1632,1904 l 68,0 0,68 -68,0 z M 1768,1904 l 68,0 0,68 -68,0 z " />
	</g>
</svg>
